<svg width="19" height="14" viewBox="0 0 19 14" fill="none" xmlns="http://www.w3.org/2000/svg">
<path fill-rule="evenodd" clip-rule="evenodd" d="M0 0H27.075V1.07734H0V0ZM0 2.15469H27.075V3.23203H0V2.15469ZM0 4.30664H27.075V5.38672H0V4.30664ZM0 6.46133H27.075V7.53867H0V6.46133ZM0 8.61602H27.075V9.69336H0V8.61602ZM0 10.768H27.075V11.8453H0V10.768ZM0 12.9227H27.075V14H0V12.9227Z" fill="#BD3D44"/>
<path fill-rule="evenodd" clip-rule="evenodd" d="M0 1.07812H27.075V2.15547H0V1.07812ZM0 3.23281H27.075V4.30742H0V3.23281ZM0 5.38477H27.075V6.46211H0V5.38477ZM0 7.53945H27.075V8.6168H0V7.53945ZM0 9.69414H27.075V10.7715H0V9.69414ZM0 11.8461H27.075V12.9234H0V11.8461Z" fill="white"/>
<path fill-rule="evenodd" clip-rule="evenodd" d="M0 0H10.8294V7.53867H0V0Z" fill="#192F5D"/>
<path fill-rule="evenodd" clip-rule="evenodd" d="M0.901856 0.322266L1.00205 0.620312H1.31934L1.06328 0.803515L1.16069 1.1043L0.901856 0.918359L0.645801 1.10156L0.743213 0.803515L0.484375 0.620312H0.807227L0.901856 0.322266ZM2.70815 0.322266L2.80557 0.620312H3.12563L2.8668 0.803515L2.96421 1.1043L2.70815 0.918359L2.44932 1.10156L2.54673 0.803515L2.29067 0.620312H2.60796L2.70815 0.322266ZM4.51167 0.322266L4.61187 0.620312H4.92637L4.67031 0.803515L4.76772 1.1043L4.50889 0.918359L4.25283 1.10156L4.35024 0.803515L4.09141 0.620312H4.41147L4.51167 0.322266ZM6.31797 0.322266L6.41538 0.620312H6.73545L6.47661 0.803515L6.57681 1.1043L6.31797 0.918359L6.05913 1.10156L6.15933 0.803515L5.90049 0.620312H6.21777L6.31797 0.322266ZM8.12148 0.322266L8.22168 0.620312H8.53896L8.28291 0.803515L8.38032 1.1043L8.12148 0.918359L7.86543 1.10156L7.96284 0.803515L7.70679 0.620312H8.02407L8.12148 0.322266ZM9.92778 0.322266L10.0252 0.620312H10.3453L10.0864 0.803515L10.1866 1.1043L9.92778 0.918359L9.66895 1.10156L9.76914 0.803515L9.5103 0.620312H9.83037L9.92778 0.322266ZM1.8064 1.07695L1.90381 1.375H2.22388L1.96504 1.5582L2.05967 1.85625L1.80918 1.67305L1.55034 1.85625L1.64219 1.5582L1.3917 1.375H1.70898L1.8064 1.07695ZM3.60991 1.07695L3.71011 1.375H4.02739L3.76855 1.5582L3.86875 1.85625L3.60991 1.67305L3.35107 1.85625L3.45127 1.5582L3.19243 1.375H3.5125L3.60991 1.07695ZM5.41621 1.07695L5.51362 1.375H5.83369L5.57485 1.5582L5.67227 1.85625L5.41621 1.67305L5.15737 1.85625L5.25479 1.5582L4.99873 1.375H5.31602L5.41621 1.07695ZM7.21973 1.07695L7.31992 1.375H7.63721L7.37837 1.5582L7.47856 1.85625L7.21973 1.67305L6.96367 1.85625L7.06108 1.5582L6.80225 1.375H7.1251L7.21973 1.07695ZM9.02602 1.07695L9.12344 1.375H9.44351L9.18467 1.5582L9.28208 1.85625L9.02602 1.67305L8.76719 1.85625L8.8646 1.5582L8.60854 1.375H8.92583L9.02602 1.07695ZM0.901856 1.82891L1.00205 2.13242H1.31934L1.06328 2.31562L1.16069 2.61367L0.901856 2.42773L0.645801 2.61367L0.743213 2.31289L0.484375 2.12969H0.807227L0.901856 1.82891ZM2.70815 1.82891L2.80557 2.12969H3.12563L2.8668 2.31289L2.96421 2.61094L2.70815 2.425L2.44932 2.61094L2.54673 2.31016L2.29067 2.12695H2.60796L2.70815 1.82891ZM4.51167 1.82891L4.61187 2.12969H4.92637L4.67031 2.31289L4.76772 2.61094L4.50889 2.425L4.25283 2.61094L4.35024 2.31016L4.09141 2.12695H4.41147L4.51167 1.82891ZM6.31797 1.82891L6.41538 2.12969H6.73545L6.47661 2.31289L6.57681 2.61094L6.31797 2.425L6.05913 2.61094L6.15933 2.31016L5.90049 2.12695H6.21777L6.31797 1.82891ZM8.12148 1.82891L8.22168 2.12969H8.53896L8.28291 2.31289L8.38032 2.61094L8.12148 2.425L7.86543 2.61094L7.96284 2.31016L7.70679 2.12695H8.02407L8.12148 1.82891ZM9.92778 1.82891L10.0252 2.12969H10.3453L10.0864 2.31289L10.1866 2.61094L9.92778 2.425L9.66895 2.61094L9.76914 2.31016L9.5103 2.12695H9.83037L9.92778 1.82891ZM1.8064 2.58359L1.90381 2.88164H2.22388L1.96504 3.06484L2.06245 3.36562L1.8064 3.17969L1.54756 3.36289L1.64497 3.06484L1.38892 2.88164H1.7062L1.8064 2.58359ZM3.60991 2.58359L3.71011 2.88164H4.02739L3.76855 3.06484L3.86875 3.36562L3.60991 3.17969L3.35107 3.36289L3.45127 3.06484L3.19243 2.88164H3.5125L3.60991 2.58359ZM5.41621 2.58359L5.51362 2.88164H5.83369L5.57485 3.06484L5.67227 3.36562L5.41621 3.17969L5.15737 3.36289L5.25479 3.06484L4.99873 2.88164H5.31602L5.41621 2.58359ZM7.21973 2.58359L7.31992 2.88164H7.63721L7.38115 3.06484L7.47856 3.36562L7.21973 3.17969L6.96367 3.36289L7.06108 3.06484L6.80225 2.88164H7.1251L7.21973 2.58359ZM9.02602 2.58359L9.12344 2.88164H9.44351L9.18467 3.06484L9.28208 3.36562L9.02602 3.17969L8.76719 3.36289L8.8646 3.06484L8.60854 2.88164H8.92583L9.02602 2.58359ZM0.901856 3.33828L1.00205 3.63633H1.31934L1.06328 3.81953L1.16069 4.12031L0.901856 3.93437L0.645801 4.11758L0.743213 3.81953L0.484375 3.63633H0.807227L0.901856 3.33828ZM2.70815 3.33828L2.80557 3.63633H3.12563L2.8668 3.81953L2.96421 4.11758L2.70815 3.93437L2.44932 4.11758L2.54673 3.81953L2.29067 3.63633H2.60796L2.70815 3.33828ZM4.51167 3.33828L4.61187 3.63633H4.92637L4.67031 3.81953L4.76772 4.12031L4.50889 3.93437L4.25283 4.11758L4.35024 3.81953L4.09141 3.63633H4.41147L4.51167 3.33828ZM6.31797 3.33828L6.41538 3.63633H6.73545L6.47661 3.81953L6.57681 4.12031L6.31797 3.93437L6.05913 4.11758L6.15933 3.81953L5.90049 3.63633H6.21777L6.31797 3.33828ZM8.12148 3.33828L8.22168 3.63633H8.53896L8.28291 3.81953L8.38032 4.12031L8.12148 3.93437L7.86543 4.11758L7.96284 3.81953L7.70679 3.63633H8.02407L8.12148 3.33828ZM9.92778 3.33828L10.0252 3.63633H10.3453L10.0864 3.81953L10.1866 4.12031L9.92778 3.93437L9.66895 4.11758L9.76914 3.81953L9.5103 3.63633H9.83037L9.92778 3.33828ZM1.8064 4.09297L1.90381 4.39101H2.22388L1.96504 4.57422L2.06245 4.87226L1.8064 4.68633L1.54756 4.87226L1.64497 4.57148L1.38892 4.38828H1.7062L1.8064 4.09297ZM3.60991 4.09297L3.71011 4.39101H4.02739L3.76855 4.57422L3.86875 4.87226L3.60991 4.68633L3.35107 4.87226L3.45127 4.57148L3.19243 4.38828H3.5125L3.60991 4.09297ZM5.41621 4.09297L5.51362 4.39101H5.83369L5.57485 4.57422L5.67227 4.87226L5.41621 4.68633L5.15737 4.87226L5.25479 4.57148L4.99873 4.38828H5.31602L5.41621 4.09297ZM7.21973 4.09297L7.31992 4.39101H7.63721L7.38115 4.57422L7.47856 4.87226L7.21973 4.68633L6.96367 4.87226L7.06108 4.57148L6.80225 4.38828H7.1251L7.21973 4.09297ZM9.02602 4.09297L9.12344 4.39101H9.44351L9.18467 4.57422L9.28208 4.87226L9.02602 4.68633L8.76719 4.87226L8.8646 4.57148L8.60854 4.38828H8.92583L9.02602 4.09297ZM0.901856 4.84492L1.00205 5.1457H1.31934L1.06328 5.3289L1.16069 5.62422L0.901856 5.44101L0.645801 5.62422L0.743213 5.32617L0.484375 5.14297H0.807227L0.901856 4.84492ZM2.70815 4.84492L2.80557 5.1457H3.12563L2.8668 5.3289L2.96699 5.62422L2.70815 5.44101L2.44932 5.62422L2.54951 5.32617L2.29067 5.14297H2.60796L2.70815 4.84492ZM4.51167 4.84492L4.61187 5.1457H4.92637L4.67031 5.3289L4.76772 5.62422L4.50889 5.44101L4.25283 5.62422L4.35024 5.32617L4.09141 5.14297H4.41147L4.51167 4.84492ZM6.31797 4.84492L6.41538 5.1457H6.73545L6.47661 5.3289L6.57681 5.62422L6.31797 5.44101L6.05913 5.62422L6.15933 5.32617L5.90049 5.14297H6.21777L6.31797 4.84492ZM8.12148 4.84492L8.22168 5.1457H8.53896L8.28291 5.3289L8.38032 5.62422L8.12148 5.44101L7.86543 5.62422L7.96284 5.32617L7.70679 5.14297H8.02407L8.12148 4.84492ZM9.92778 4.84492L10.0252 5.1457H10.3453L10.0864 5.3289L10.1866 5.62422L9.92778 5.44101L9.66895 5.62422L9.76914 5.32617L9.5103 5.14297H9.83037L9.92778 4.84492ZM1.8064 5.59961L1.90381 5.89765H2.22388L1.96504 6.08086L2.06245 6.38164L1.8064 6.1957L1.54756 6.3789L1.64497 6.08086L1.38892 5.89765H1.7062L1.8064 5.59961ZM3.60991 5.59961L3.71011 5.89765H4.02739L3.76855 6.08086L3.86875 6.38164L3.60991 6.1957L3.35107 6.3789L3.45127 6.08086L3.19243 5.89765H3.5125L3.60991 5.59961ZM5.41621 5.59961L5.51362 5.89765H5.83369L5.57485 6.08086L5.67227 6.38164L5.41621 6.1957L5.15737 6.3789L5.25479 6.08086L4.99873 5.89765H5.31602L5.41621 5.59961ZM7.21973 5.59961L7.31992 5.89765H7.63721L7.38115 6.08086L7.47856 6.38164L7.21973 6.1957L6.96367 6.3789L7.06108 6.08086L6.80225 5.89765H7.1251L7.21973 5.59961ZM9.02602 5.59961L9.12344 5.89765H9.44351L9.18467 6.08086L9.28208 6.38164L9.02602 6.1957L8.76719 6.3789L8.8646 6.08086L8.60854 5.89765H8.92583L9.02602 5.59961ZM0.901856 6.35429L1.00205 6.65234H1.31934L1.06328 6.83554L1.16069 7.13359L0.901856 6.95039L0.645801 7.13359L0.743213 6.83281L0.484375 6.64961H0.807227L0.901856 6.35429ZM2.70815 6.35429L2.80557 6.65234H3.12563L2.8668 6.83554L2.96699 7.13359L2.70815 6.95039L2.44932 7.13359L2.54951 6.83281L2.29067 6.64961H2.60796L2.70815 6.35429ZM4.51167 6.35429L4.61187 6.65234H4.92637L4.67588 6.83554L4.77329 7.13359L4.51445 6.95039L4.2584 7.13359L4.35581 6.83281L4.09697 6.64961H4.41704L4.51167 6.35429ZM6.31797 6.35429L6.41538 6.65234H6.73545L6.47661 6.83554L6.57681 7.13359L6.31797 6.95039L6.05913 7.13359L6.15933 6.83281L5.90049 6.64961H6.21777L6.31797 6.35429ZM8.12148 6.35429L8.22168 6.65234H8.53896L8.28291 6.83554L8.38032 7.13359L8.12148 6.95039L7.86543 7.13359L7.96284 6.83281L7.70679 6.64961H8.02407L8.12148 6.35429ZM9.92778 6.35429L10.0252 6.65234H10.3453L10.0864 6.83554L10.1866 7.13359L9.92778 6.95039L9.66895 7.13359L9.76914 6.83281L9.5103 6.64961H9.83037L9.92778 6.35429Z" fill="white"/>
</svg>
