<svg width="44" height="45" viewBox="0 0 44 45" fill="currentcolor" xmlns="http://www.w3.org/2000/svg">
<path fill-rule="evenodd" clip-rule="evenodd" d="M7.3335 22.5C7.3335 21.4875 8.15431 20.6667 9.16683 20.6667H34.8335C35.846 20.6667 36.6668 21.4875 36.6668 22.5C36.6668 23.5125 35.846 24.3333 34.8335 24.3333H9.16683C8.15431 24.3333 7.3335 23.5125 7.3335 22.5Z" />
<path fill-rule="evenodd" clip-rule="evenodd" d="M23.2965 8.37031C24.0125 9.08628 24.0125 10.2471 23.2965 10.963L11.7596 22.5L23.2965 34.037C24.0125 34.7529 24.0125 35.9137 23.2965 36.6297C22.5806 37.3457 21.4198 37.3457 20.7038 36.6297L7.87047 23.7964C7.15451 23.0804 7.15451 21.9196 7.87047 21.2036L20.7038 8.37031C21.4198 7.65435 22.5806 7.65435 23.2965 8.37031Z" />
</svg>
