<svg width="10" height="10" viewBox="0 0 10 10" fill="none" xmlns="http://www.w3.org/2000/svg">
<path d="M4 1.13333C4 1.24379 3.91046 1.33333 3.8 1.33333H1.53333C1.42288 1.33333 1.33333 1.42288 1.33333 1.53333L1.33333 8.46667C1.33333 8.57712 1.42288 8.66667 1.53333 8.66667H8.46667C8.57712 8.66667 8.66667 8.57712 8.66667 8.46667V6.2C8.66667 6.08954 8.75621 6 8.86667 6H9.8C9.91046 6 10 6.08954 10 6.2V8.66667C10 9.40305 9.40305 10 8.66667 10H1.33333C0.596954 10 0 9.40305 0 8.66667V1.33333C0 0.596954 0.596954 0 1.33333 0H3.8C3.91046 0 4 0.089543 4 0.2V1.13333Z" fill="#7460FF"/>
<path d="M6 1.13333C6 1.24379 6.08954 1.33333 6.2 1.33333H7.72396L4.0034 5.05389C3.9253 5.132 3.9253 5.25863 4.0034 5.33673L4.66337 5.9967C4.74147 6.07481 4.8681 6.07481 4.94621 5.9967L8.66667 2.27624V3.8C8.66667 3.91046 8.75621 4 8.86667 4H9.8C9.91046 4 10 3.91046 10 3.8V1.33333C10 0.596954 9.40305 0 8.66667 0H6.2C6.08954 0 6 0.089543 6 0.2V1.13333Z" fill="#7460FF"/>
</svg>
