<svg width="20" height="20" viewBox="0 0 20 20" fill="none" xmlns="http://www.w3.org/2000/svg">
<g clip-path="url(#clip0_1588_4163)">
<path d="M12.5 12.5C12.0398 12.5 11.6667 12.8731 11.6667 13.3333V18.3333H1.66668V1.66668H11.6667V6.66668C11.6667 7.12691 12.0398 7.5 12.5 7.5C12.9602 7.5 13.3333 7.12691 13.3333 6.66668V0.83332C13.3333 0.373086 12.9602 0 12.5 0H0.83332C0.373086 0 0 0.373086 0 0.83332V19.1666C0 19.6269 0.373086 20 0.83332 20H12.5C12.9602 20 13.3333 19.6269 13.3333 19.1667V13.3333C13.3333 12.8731 12.9602 12.5 12.5 12.5Z" fill="#7460FF"/>
<path d="M19.8112 10.5282C19.8191 10.5185 19.826 10.5084 19.8335 10.4984C19.8423 10.4866 19.8515 10.475 19.8597 10.4627C19.8676 10.4508 19.8745 10.4385 19.8818 10.4263C19.8884 10.4152 19.8954 10.4043 19.9016 10.3928C19.9082 10.3804 19.9139 10.3676 19.9198 10.3549C19.9255 10.343 19.9314 10.3312 19.9366 10.3189C19.9416 10.3066 19.9458 10.2941 19.9502 10.2816C19.955 10.2684 19.96 10.2554 19.9641 10.242C19.9678 10.2295 19.9706 10.2167 19.9738 10.2041C19.9773 10.1904 19.9811 10.1769 19.9839 10.1629C19.9867 10.1483 19.9885 10.1335 19.9906 10.1188C19.9923 10.1066 19.9947 10.0947 19.9959 10.0823C20.0013 10.0276 20.0013 9.97253 19.9959 9.91784C19.9947 9.90554 19.9924 9.89358 19.9906 9.8814C19.9885 9.86667 19.9868 9.85187 19.9839 9.83726C19.9811 9.82327 19.9773 9.80976 19.9738 9.79605C19.9706 9.78339 19.9678 9.77069 19.9641 9.75819C19.96 9.74476 19.955 9.73175 19.9502 9.71862C19.9457 9.70612 19.9416 9.69355 19.9366 9.68124C19.9315 9.66898 19.9255 9.65722 19.9198 9.64526C19.9139 9.63257 19.9082 9.61976 19.9016 9.60733C19.8954 9.59589 19.8884 9.58499 19.8818 9.57386C19.8745 9.56167 19.8676 9.54933 19.8597 9.53745C19.8514 9.52515 19.8423 9.51358 19.8335 9.50179C19.826 9.49183 19.8191 9.48163 19.8112 9.47194C19.794 9.45105 19.7759 9.43093 19.7568 9.41179C19.7565 9.41147 19.7562 9.41116 19.756 9.41089L16.4226 6.07757C16.0972 5.75214 15.5696 5.75214 15.2441 6.07757C14.9187 6.403 14.9187 6.93065 15.2441 7.25608L17.1549 9.16683H10.0001C9.53983 9.16683 9.16675 9.53991 9.16675 10.0001C9.16675 10.4604 9.53983 10.8335 10.0001 10.8335H17.1549L15.2441 12.7442C14.9187 13.0696 14.9187 13.5973 15.2441 13.9227C15.5696 14.2482 16.0972 14.2482 16.4226 13.9227L19.756 10.5894C19.7563 10.5891 19.7565 10.5888 19.7568 10.5885C19.7759 10.5692 19.794 10.5491 19.8112 10.5282Z" fill="#7460FF"/>
</g>
<defs>
<clipPath id="clip0_1588_4163">
<rect width="20" height="20" fill="white"/>
</clipPath>
</defs>
</svg>
