<svg width="16" height="16" viewBox="0 0 16 16" fill="none" xmlns="http://www.w3.org/2000/svg">
<path d="M0.162222 13.2266C-0.0540891 13.4429 -0.0540897 13.7936 0.162221 14.01L1.99 15.8378C2.20631 16.0541 2.55702 16.0541 2.77333 15.8378L7.99999 10.611L13.2266 15.8378C13.443 16.0541 13.7937 16.0541 14.01 15.8378L15.8378 14.01C16.0541 13.7936 16.0541 13.4429 15.8378 13.2266L10.6111 7.99986L15.8375 2.77339C16.0538 2.55707 16.0538 2.20636 15.8375 1.99004L14.0097 0.162236C13.7934 -0.0540788 13.4427 -0.0540787 13.2264 0.162236L7.99999 5.38871L2.77361 0.162237C2.5573 -0.054078 2.20659 -0.0540786 1.99027 0.162236L0.1625 1.99004C-0.053811 2.20636 -0.0538109 2.55707 0.1625 2.77339L5.38888 7.99986L0.162222 13.2266Z" fill="white"/>
</svg>
