<svg width="30" height="30" viewBox="0 0 30 30" fill="none" xmlns="http://www.w3.org/2000/svg">
<path d="M0.441252 27.4282C-0.147085 28.0165 -0.147083 28.9704 0.441252 29.5587C1.02959 30.1471 1.98347 30.1471 2.5718 29.5587L15 17.1305L27.4282 29.5587C28.0165 30.1471 28.9704 30.1471 29.5587 29.5587C30.1471 28.9704 30.1471 28.0165 29.5587 27.4282L17.1305 15L29.5587 2.5718C30.1471 1.98347 30.1471 1.02959 29.5587 0.441252C28.9704 -0.147085 28.0165 -0.147083 27.4282 0.441252L15 12.8695L2.5718 0.441252C1.98347 -0.147083 1.02959 -0.147085 0.441252 0.441252C-0.147085 1.02959 -0.147083 1.98347 0.441253 2.5718L12.8695 15L0.441252 27.4282Z" fill="white"/>
</svg>
