<svg width="12" height="12" viewBox="0 0 12 12" fill="none" xmlns="http://www.w3.org/2000/svg">
<path d="M0.333293 9.81709C0.18007 9.97032 0.18007 10.2187 0.333293 10.372L1.62799 11.6667C1.78121 11.8199 2.02963 11.8199 2.18286 11.6667L5.88514 7.96438L9.58742 11.6667C9.74065 11.8199 9.98907 11.8199 10.1423 11.6667L11.437 10.372C11.5902 10.2187 11.5902 9.97032 11.437 9.81709L7.73471 6.11481L11.4368 2.41273C11.59 2.2595 11.59 2.01108 11.4368 1.85786L10.1421 0.563159C9.98887 0.409936 9.74045 0.409936 9.58723 0.56316L5.88514 4.26525L2.18306 0.56316C2.02983 0.409937 1.78141 0.409937 1.62819 0.56316L0.33349 1.85786C0.180267 2.01108 0.180267 2.2595 0.33349 2.41273L4.03557 6.11481L0.333293 9.81709Z" fill="#CECBDE"/>
</svg>
