<svg width="12" height="12" viewBox="0 0 12 12" fill="none" xmlns="http://www.w3.org/2000/svg">
<path d="M11.1818 4.90918H0.818182C0.366544 4.90918 0 5.27572 0 5.72736V6.27278C0 6.72442 0.366544 7.09096 0.818182 7.09096H11.1818C11.6334 7.09096 12 6.72442 12 6.27278V5.72736C12 5.27572 11.6334 4.90918 11.1818 4.90918Z" fill="#454257"/>
<path d="M4.90918 0.818182V11.1818C4.90918 11.6334 5.27572 12 5.72736 12H6.27278C6.72442 12 7.09096 11.6334 7.09096 11.1818V0.818182C7.09096 0.366544 6.72442 0 6.27278 0H5.72736C5.27572 0 4.90918 0.366544 4.90918 0.818182Z" fill="#454257"/>
</svg>
