<svg width="20" height="20" viewBox="0 0 20 20" fill="none" xmlns="http://www.w3.org/2000/svg">
<path d="M6.33333 8C7.25383 8 8 7.25383 8 6.33333C8 5.41284 7.25383 4.66667 6.33333 4.66667C5.41284 4.66667 4.66667 5.41284 4.66667 6.33333C4.66667 7.25383 5.41284 8 6.33333 8Z" fill="white"/>
<path fill-rule="evenodd" clip-rule="evenodd" d="M2 0C0.895426 0 0 0.895426 0 2V18C0 19.1046 0.895426 20 2 20H18C19.1046 20 20 19.1046 20 18V2C20 0.895426 19.1046 0 18 0H2ZM2.66667 2.66667V12.3414C4.31576 11.2614 6.88566 10.6667 10 10.6667C13.1143 10.6667 15.6842 11.2614 17.3333 12.3414V2.66667H2.66667ZM2.66667 17.3333V16.3333C2.66667 16.1498 2.82422 15.4508 4.24365 14.6464C5.58333 13.8873 7.61304 13.3333 10 13.3333C12.387 13.3333 14.4167 13.8873 15.7563 14.6464C17.1758 15.4508 17.3333 16.1498 17.3333 16.3333V17.3333H2.66667Z" fill="white"/>
</svg>
