<svg width="431" height="220" viewBox="0 0 431 220" fill="none" xmlns="http://www.w3.org/2000/svg">
<path d="M220.978 219.904C207.416 219.384 193.923 215.258 180.501 207.525C167.078 199.791 156.657 190.139 149.235 178.569C142.003 167.107 137.752 154.848 136.484 141.792C135.405 128.844 136.438 115.731 139.584 102.451C143.028 89.0913 148.461 75.9972 155.883 63.1686C165.924 45.8123 177.928 31.5991 191.895 20.5289C205.861 9.4587 221.812 2.80158 239.746 0.557541C257.87 -1.57757 275.722 2.41966 293.303 12.5492C310.885 22.6788 323.185 36.0544 330.205 52.6759C337.414 69.4063 339.707 86.5742 337.083 104.18C334.459 121.785 328.127 139.266 318.085 156.622C310.663 169.451 301.922 180.639 291.861 190.186C282.098 199.654 271.235 207.104 259.27 212.535C247.494 218.076 234.73 220.532 220.978 219.904ZM205.224 91.5968C184.159 128.007 184.213 152.312 205.386 164.511C226.559 176.71 247.679 164.604 268.744 128.194C289.7 91.9722 289.591 67.7617 268.418 55.5627C247.245 43.3636 226.18 55.375 205.224 91.5968Z" fill="#454257"/>
<path d="M161.1 210.82C161.1 215.239 157.518 218.82 153.1 218.82H112.453C108.035 218.82 104.453 215.239 104.453 210.82V178.956H8C3.58172 178.956 0 175.374 0 170.956V141.977C0 137.526 1.23726 133.164 3.57357 129.376L80.498 4.67108C81.9549 2.30922 84.5318 0.871094 87.3068 0.871094H153.1C157.518 0.871094 161.1 4.45282 161.1 8.87109V129.615H179.623C184.041 129.615 187.623 133.197 187.623 137.615V170.956C187.623 175.374 184.041 178.956 179.623 178.956H161.1V210.82ZM104.453 129.615V49.8852L54.6823 129.615H104.453Z" fill="#7460FF"/>
<path d="M161.099 129.615L169.289 178.97H161.099L161.099 129.615Z" fill="#5C4BD3"/>
<path d="M104.483 129.615L98.7985 179.001H104.483V129.615Z" fill="#5C4BD3"/>
<path d="M404.405 210.82C404.405 215.239 400.824 218.82 396.405 218.82H355.758C351.34 218.82 347.758 215.239 347.758 210.82V178.956H251.305C246.887 178.956 243.305 175.374 243.305 170.956V141.977C243.305 137.526 244.543 133.164 246.879 129.376L323.803 4.67108C325.26 2.30922 327.837 0.871094 330.612 0.871094H396.405C400.824 0.871094 404.405 4.45282 404.405 8.87109V129.615H422.928C427.346 129.615 430.928 133.197 430.928 137.615V170.956C430.928 175.374 427.346 178.956 422.928 178.956H404.405V210.82ZM347.758 129.615V49.8852L297.988 129.615H347.758Z" fill="#BB85FF"/>
<path d="M404.404 129.615L412.594 178.97H404.404L404.404 129.615Z" fill="#9963DD"/>
<path d="M347.788 129.615L342.104 179.001H347.788V129.615Z" fill="#9963DD"/>
<path d="M302.413 179.002C300.749 180.971 299.04 182.884 297.287 184.743L251.264 179.002H302.413Z" fill="#2B283A"/>
</svg>
