<svg width="815" height="826" viewBox="0 0 815 826" fill="none" xmlns="http://www.w3.org/2000/svg">
<path d="M88.2771 448.648L159.867 338.404C163.91 332.177 175.403 333.155 176.375 339.808L183.081 385.688C183.227 386.684 183.087 387.709 182.671 388.693L135.481 500.367C132.966 506.321 122.736 507.488 119.271 502.217L88.1644 454.906C86.9159 453.007 86.9579 450.679 88.2771 448.648Z" fill="#5C4BD3"/>
<path d="M169.048 331.726L132.964 497.001C131.557 503.449 141.699 506.295 148.041 501.232L272.983 401.488C276.582 398.615 276.902 394.462 273.707 392.105L184.849 326.574C179.83 322.873 170.303 325.979 169.048 331.726Z" fill="#7460FF"/>
<path d="M466.131 550.634L670.014 689.881C672.569 691.625 675.406 689.424 676.578 684.789L736.195 448.991C737.587 443.486 736.072 436.926 732.992 435.12L634.403 377.297C633.108 376.538 631.709 376.748 630.494 377.886L465.582 532.259C461.407 536.167 461.75 547.642 466.131 550.634Z" fill="#454257"/>
<path d="M351.777 282.105L441.771 512.501C444.347 519.095 430.871 524.701 424.845 519.543L282.931 398.072C281.205 396.595 280.756 394.525 281.722 392.498L333.642 283.574C336.667 277.227 349.467 276.19 351.777 282.105Z" fill="#CECBDE"/>
<path d="M431.99 525.702L315.93 426.577C309.215 420.841 299.616 427.835 304.197 435.126L356.949 519.072C358.084 520.877 359.957 522.201 362.108 522.716L425.416 537.896C433.264 539.777 438.059 530.885 431.99 525.702Z" fill="#AAA7BF"/>
<path d="M304.652 380.481L368.061 340.929C371.019 339.084 372.373 336.382 371.519 334.029L352.425 281.432C350.247 275.435 337.333 276.398 334.261 282.786L289.947 374.935C286.919 381.233 297.218 385.118 304.652 380.481Z" fill="#E8E5F5"/>
<path d="M399.242 442.228C388.197 442.228 379.242 433.274 379.242 422.228V401.434C379.242 390.388 388.197 381.434 399.242 381.434H544C555.046 381.434 564 390.388 564 401.434V589.147C564 634.405 550.126 669.53 522.379 694.523C494.631 718.841 453.01 731 397.515 731C342.02 731 300.061 718.841 271.636 694.523C243.212 669.53 229 634.405 229 589.147V183.853C229 138.595 242.874 103.807 270.621 79.4897C298.369 54.4966 339.99 42 395.485 42C450.98 42 492.939 54.4966 521.364 79.4897C549.788 103.807 564 138.595 564 183.853V219.581C564 230.627 555.046 239.581 544 239.581H512.939C501.894 239.581 492.939 230.627 492.939 219.581V183.853C492.939 129.814 460.793 102.794 396.5 102.794C332.207 102.794 300.061 129.814 300.061 183.853V589.147C300.061 643.186 332.207 670.206 396.5 670.206C460.793 670.206 492.939 643.186 492.939 589.147V462.228C492.939 451.182 483.985 442.228 472.939 442.228H399.242Z" fill="#2A2837"/>
<path d="M166.061 312.581L75.8316 237.939C71.2941 234.186 72.4654 228.756 78.1102 227.376L143.832 211.314C145.388 210.934 147.13 210.917 148.853 211.266L258.335 233.447C265.413 234.88 268.834 241.403 264.389 244.987L179.413 313.51C176.088 316.191 169.905 315.761 166.061 312.581Z" fill="#8754C6"/>
<path d="M69.2194 221.501L125.249 115.741C127.409 111.663 134.723 111.077 139.535 114.595L325.358 250.439C331.916 255.233 328.021 262.646 319.501 261.587L77.6481 231.502C71.3768 230.722 67.0525 225.591 69.2194 221.501Z" fill="#A16AE6"/>
<path d="M146.327 106.551L373.049 86.1838C379.444 85.6093 385.54 90.3677 384.443 95.0776L347.527 253.619C346.375 258.564 338.205 259.851 332.824 255.934L143.019 117.76C137.381 113.656 139.292 107.183 146.327 106.551Z" fill="#BB85FF"/>
<path d="M516.483 433.245L668.569 685.502C671.203 689.871 675.314 688.271 676.824 682.29L735.133 451.214C736.756 444.783 734.405 437.294 730.644 436.915L520.248 415.734C515.237 415.23 512.709 426.985 516.483 433.245Z" fill="#524F63"/>
<path d="M643.806 350.01L737.07 140.521C739.224 135.683 735.993 131.049 730.541 131.156L610.17 133.524C604.723 133.631 600.007 138.412 600.632 143.193L627.74 350.315C628.72 357.806 640.435 357.584 643.806 350.01Z" fill="#FEDBEC"/>
<path d="M399.3 98.2237L505.189 210.888C508.339 214.241 515.868 214.043 520.232 210.494L623.61 126.404C628.331 122.564 626.416 117.266 619.99 116.389L410.724 87.8144C402.431 86.682 394.902 93.5434 399.3 98.2237Z" fill="#FEDBEC"/>
<path d="M724.49 137.854L527.797 211.497C520.798 214.117 513.524 210.777 515.05 205.644L550.928 84.9462C552.245 80.5147 559.436 77.6018 565.024 79.2366L725.839 126.291C732.599 128.269 731.8 135.117 724.49 137.854Z" fill="#FACCE2"/>
<path d="M671.563 261.066L735.853 248.6C741.634 247.479 745.386 241.645 743.187 237.198L730.955 212.464C728.969 208.449 723.097 207.657 718.687 210.809L666.629 248.009C659.348 253.213 662.946 262.737 671.563 261.066Z" fill="#F9F5F4"/>
<path d="M363.379 258.488L499.648 221.312C505.769 219.643 512.429 222.708 512.459 227.207L512.999 309.441C513.03 314.156 505.816 317.264 499.596 315.216L362.786 270.157C355.467 267.747 355.832 260.547 363.379 258.488Z" fill="#EDE6E4"/>
<path d="M503.723 229.425L424.303 348.946C422.745 351.29 423.404 354.043 425.972 355.927L501.162 411.09C503.831 413.048 508.006 413.661 511.619 412.626L622.815 380.756C627.829 379.32 629.993 375.275 627.518 371.97L520.551 229.156C516.989 224.4 506.955 224.561 503.723 229.425Z" fill="#F9F5F4"/>
<path d="M489.206 629.378L456.991 553.198C455.126 548.79 449.649 546.204 445.243 547.652L245.022 613.462C242.856 614.174 241.306 615.771 240.781 617.832L222.445 689.814C220.976 695.58 227.753 701.519 234.038 699.975L484.81 638.363C488.95 637.345 490.895 633.371 489.206 629.378Z" fill="#E5D9D2"/>
<path d="M466.608 642.132L223.801 702.242C219.574 703.288 214.625 700.865 212.734 696.824L134.961 530.599C132.163 524.62 137.607 519.376 144.309 521.595L464.889 627.709C472.889 630.357 474.072 640.284 466.608 642.132Z" fill="#EDE6E4"/>
<path d="M230.133 685.509L351.916 528.193C354.543 524.8 360.27 524.731 364.209 528.047L482.737 627.808C487.766 632.041 486.773 638.908 480.93 640.307L240.619 697.862C233.075 699.668 225.803 691.102 230.133 685.509Z" fill="#F9F5F4"/>
<path d="M221.998 582.427L110.575 631.744C105.204 634.121 105.68 641.353 111.435 644.79L152.117 669.089C155.749 671.259 160.171 670.99 162.611 668.45L233.351 594.834C239.005 588.95 229.854 578.949 221.998 582.427Z" fill="#524F63"/>
<path d="M735.871 610.933L709.269 632.334C705.34 635.494 697.728 634.233 694.458 629.879L659.145 582.872C654.617 576.844 662.16 571.149 670.244 574.493L732.159 600.099C737.806 602.434 739.671 607.876 735.871 610.933Z" fill="#CECBDE"/>
<path d="M472.705 130.011L214.782 189.382C205.632 191.488 206.965 204.909 216.35 205.174L384.349 209.924C386.091 209.973 387.801 209.453 389.22 208.441L479.144 144.32C486.27 139.239 481.234 128.047 472.705 130.011Z" fill="#524F63"/>
<path d="M274.083 129.529L222.745 114.271C216.829 112.513 214.657 107.687 218.368 104.548L240.775 85.595C244.858 82.1414 253.392 82.8733 256.86 86.9744L285.791 121.186C290.28 126.495 282.508 132.033 274.083 129.529Z" fill="#CECBDE"/>
</svg>
