<svg width="121" height="111" viewBox="0 0 121 111" fill="none" xmlns="http://www.w3.org/2000/svg">
    <path d="M73.6782 83.213L7.09165 32.2672C2.73593 28.9346 3.02599 23.899 7.6879 21.9158L56.1971 1.27977C58.9103 0.125544 62.5082 0.310083 65.5372 1.75884L112.379 24.1627C116.658 26.2092 118.594 30.1609 116.811 33.2091L88.0464 82.387C85.7108 86.3801 78.3693 86.8022 73.6782 83.213Z" fill="#8754C6"/>
    <path d="M68.5698 52.3826C74.3298 52.3826 78.0378 49.4666 78.0378 45.3266C78.0378 41.7266 74.8698 39.8186 72.4218 39.5666C75.0858 39.0986 77.6778 37.1186 77.6778 34.0946C77.6778 30.0986 74.2218 27.5786 68.6058 27.5786C64.3938 27.5786 61.3698 29.1986 59.4258 31.3946L61.9818 34.5986C63.6738 32.9786 65.7618 32.1146 68.0658 32.1146C70.5858 32.1146 72.5298 33.0506 72.5298 34.9586C72.5298 36.7226 70.7658 37.5146 68.1018 37.5146C67.2018 37.5146 65.5458 37.5146 65.1138 37.4786V42.0866C65.4738 42.0506 67.0938 42.0146 68.1018 42.0146C71.4498 42.0146 72.9258 42.8786 72.9258 44.7866C72.9258 46.5866 71.3058 47.8466 68.3898 47.8466C66.0498 47.8466 63.4218 46.8386 61.7658 45.1106L59.1018 48.5306C60.8658 50.6906 64.1418 52.3826 68.5698 52.3826Z" fill="white"/>
</svg>
