<svg width="121" height="110" viewBox="0 0 121 110" fill="none" xmlns="http://www.w3.org/2000/svg">
    <path d="M7.56318 69.2964L42.4427 3.45897C45.1726 -1.69393 55.4233 -0.931 59.0144 4.69235L113.686 90.3043C117.015 95.5172 111.627 100.472 104.372 98.8699L14.8209 79.0954C9.09332 77.8307 5.56536 73.0674 7.56318 69.2964Z" fill="#BB85FF"/>
    <path d="M68.9423 65.9494H50.8703V61.9174C56.0303 58.1014 59.4383 55.3894 61.0943 53.7814C62.7503 52.1734 63.5783 50.6614 63.5783 49.2454C63.5783 48.2374 63.1943 47.4694 62.4263 46.9414C61.6823 46.3894 60.7703 46.1134 59.6903 46.1134C57.1703 46.1134 55.0223 47.0374 53.2463 48.8854L50.3303 45.5014C51.4583 44.2054 52.8383 43.2334 54.4703 42.5854C56.1263 41.9134 57.8303 41.5774 59.5823 41.5774C62.2223 41.5774 64.4063 42.2734 66.1343 43.6654C67.8863 45.0574 68.7623 46.9174 68.7623 49.2454C68.7623 51.2134 67.9823 53.1454 66.4223 55.0414C64.8863 56.9134 62.4623 59.0494 59.1503 61.4494H68.9423V65.9494Z" fill="white"/>
</svg>
